<mxfile host="app.diagrams.net" modified="2023-07-28T08:59:28.510Z" agent="Mozilla/5.0 (X11; Linux x86_64) AppleWebKit/537.36 (KHTML, like Gecko) Chrome/115.0.0.0 Safari/537.36" version="21.6.5" etag="MfDR41FHoNmpuDB3aURH" type="github">
  <diagram name="第 1 页" id="q6LpDPF4VS59UFywMJ-q">
    <mxGraphModel>
      <root>
        <mxCell id="0" />
        <mxCell id="1" parent="0" />
      </root>
    </mxGraphModel>
  </diagram>
</mxfile>
